<?xml version="1.0" encoding="utf-8"?>
<!-- Generator: Adobe Illustrator 26.5.2, SVG Export Plug-In . SVG Version: 6.00 Build 0)  -->
<svg version="1.1" id="katman_1" xmlns="http://www.w3.org/2000/svg" xmlns:xlink="http://www.w3.org/1999/xlink" x="0px" y="0px"
	 viewBox="0 0 935.3 226.1" style="enable-background:new 0 0 935.3 226.1;" xml:space="preserve">
<style type="text/css">
	.st0{fill:#FFFFFF;}
	.st1{clip-path:url(#SVGID_00000040558792053884106380000002448268425782231455_);}
	.st2{fill:#9D34DA;}
</style>
<g>
	<path class="st0" d="M224.8,224.1V32.7h40.5V72c4-22.4,15.3-42.5,44.2-42.5c32.3,0,53.3,26.3,53.3,72.5c0,45.9-21,72.2-55,72.2
		c-28.9,0-38.8-19.8-42.5-42.2v92.1H224.8z M291.6,142.8c18.4,0,30-14.4,30-40.8c0-26.3-11.6-40.8-30-40.8
		c-17,0-26.3,10.5-26.3,33.1v15C265.3,132.1,274.7,142.8,291.6,142.8z"/>
	<path class="st0" d="M377.8,140.6c0-21,13.3-33.1,39.7-42.2l42.5-15.9c-1.4-11.6-6.8-18.1-22.1-18.1c-17.6,0-33.7,9.9-43.3,23.8
		l-20.4-29.5c13.9-15,36.8-28.9,66.6-28.9c35.1,0,55.5,18.7,55.5,53.5v47.6c0,6.2,2.3,8.2,7.4,8.2h8.2v32.3h-23.8
		c-15,0-28.6-6.8-28.6-26.6v-9.3c-4.5,18.1-16.7,39.1-45,39.1C392.8,174.6,377.8,163,377.8,140.6z M429.3,144.8
		c19.3,0,30-9.6,30-26.6v-9.6l-29.5,12.2c-11,4.5-14.7,8.5-14.7,13.9C415.1,141.1,419.7,144.8,429.3,144.8z"/>
	<path class="st0" d="M531,171.5V32.7h40.5v43.6c4.5-23.2,18.1-46.5,44.8-46.5c20.4,0,31.7,13,31.7,34.8c0,15-4.5,26.9-7.9,32.3H601
		c5.1-5.1,9.9-15,9.9-22.9c0-7.9-3.7-13.9-12.5-13.9c-13.9,0-26.9,15-26.9,38v73.4H531z"/>
	<path class="st0" d="M699.2,171.5L650.5,32.7h44.8l19.3,66.6l10.8,48.7l10.5-48.7L755,32.7h44.2l-48.7,138.8H699.2z"/>
	<path class="st0" d="M800.4,102.1c0-42.8,26.9-72.2,67.7-72.2c44.2,0,66.3,29.5,66.3,65.7c0,5.9-0.6,13.9-1.4,17h-94.6
		c2.5,19.5,15.6,28.9,33.7,28.9c19.5,0,30-8.5,35.1-20.4l24.6,24.6c-10.5,15-29.2,28.6-60.3,28.6
		C827.3,174.3,800.4,144.8,800.4,102.1z M838.3,89.3h59.5C896.4,70.9,886.5,61,868.3,61C851.1,61,840.3,70.6,838.3,89.3z"/>
</g>
<g>
	<defs>
		<rect id="SVGID_1_" x="1" y="1" width="193.8" height="181.7"/>
	</defs>
	<clipPath id="SVGID_00000139255517550246675810000006053357476426904223_">
		<use xlink:href="#SVGID_1_"  style="overflow:visible;"/>
	</clipPath>
	<g style="clip-path:url(#SVGID_00000139255517550246675810000006053357476426904223_);">
		<path class="st2" d="M85.4,46.3c3.7-1.2,3.7-3.5,0-4.8L65.5,34c-3.5-1.2-7.6-5.3-9-8.8L48.8,5.6c-1.3-3.6-3.5-3.6-4.9,0l-7.6,19.5
			c-1.3,3.5-5.4,7.5-9,8.8L7.3,41.4c-3.7,1.2-3.7,3.5,0,4.8l19.9,7.5c3.5,1.2,7.6,5.3,9,8.8l7.6,19.5c1.3,3.6,3.5,3.6,4.9,0
			l7.6-19.5c1.3-3.5,5.4-7.5,9-8.8L85.4,46.3z"/>
		<path class="st2" d="M182.5,114.5c11.3-2.8,11.3-7.3,0-10.1l-25-6.1c-11.3-2.8-22.9-14.1-25.7-25.2l-6.2-24.5
			c-2.8-11.1-7.5-11.1-10.3,0L109,73.2c-2.8,11.1-14.4,22.4-25.7,25.2l-25,6.1c-11.3,2.8-11.3,7.3,0,10.1l25,6.1
			c11.3,2.8,22.9,14.1,25.7,25.2l6.2,24.5c2.8,11.1,7.5,11.1,10.3,0l6.2-24.5c2.8-11.1,14.4-22.4,25.7-25.2L182.5,114.5z"/>
	</g>
</g>
</svg>
